<mxfile host="app.diagrams.net" agent="Mozilla/5.0 (Windows NT 10.0; Win64; x64) AppleWebKit/537.36 (KHTML, like Gecko) Chrome/128.0.0.0 Safari/537.36 OPR/114.0.0.0" version="25.0.3">
  <diagram name="Page-1" id="7P6HtjNaz7a8SoBl_NWe">
    <mxGraphModel dx="996" dy="522" grid="1" gridSize="10" guides="1" tooltips="1" connect="1" arrows="1" fold="1" page="1" pageScale="1" pageWidth="827" pageHeight="1169" math="0" shadow="0">
      <root>
        <mxCell id="0" />
        <mxCell id="1" parent="0" />
        <mxCell id="TIq-oRl3Ylk5bGe3MBM8-3" style="edgeStyle=orthogonalEdgeStyle;rounded=0;orthogonalLoop=1;jettySize=auto;html=1;" edge="1" parent="1" source="TIq-oRl3Ylk5bGe3MBM8-1" target="TIq-oRl3Ylk5bGe3MBM8-2">
          <mxGeometry relative="1" as="geometry" />
        </mxCell>
        <mxCell id="TIq-oRl3Ylk5bGe3MBM8-1" value="dbr:David_Bowie" style="rounded=0;whiteSpace=wrap;html=1;fillColor=#d5e8d4;strokeColor=#82b366;" vertex="1" parent="1">
          <mxGeometry x="150" y="110" width="150" height="40" as="geometry" />
        </mxCell>
        <mxCell id="TIq-oRl3Ylk5bGe3MBM8-2" value="dbp:artist" style="rounded=0;whiteSpace=wrap;html=1;fillColor=#dae8fc;strokeColor=#6c8ebf;" vertex="1" parent="1">
          <mxGeometry x="420" y="110" width="120" height="40" as="geometry" />
        </mxCell>
      </root>
    </mxGraphModel>
  </diagram>
</mxfile>
